<svg xmlns="http://www.w3.org/2000/svg" width="441" height="122" fill="none" style=""><rect id="backgroundrect" width="100%" height="100%" x="0" y="0" fill="none" stroke="none" class="" style=""/>
<g class="currentLayer" style=""><title>Layer 1</title><path d="M120.031,78.4848 C138.696,78.4848 153.827,64.147 153.827,46.4605 C153.827,28.774 138.696,14.4363 120.031,14.4363 C101.366,14.4363 86.235,28.774 86.235,46.4605 C86.235,64.147 101.366,78.4848 120.031,78.4848 z" fill="#4472FF" id="svg_1" class=""/><path d="M69.8632,16.8095 C63.4459,3.74858 49.7637,0 36.5665,0 C20.9471,0.12049000000000001 3.75388,7.25616 3.75388,24.6705 C3.75388,43.6575 19.736,48.2526 37.0506,50.3089 C48.3114,51.5185 56.6659,54.7835 56.6659,62.765 C56.6659,71.9561 47.221,75.4629 37.172,75.4629 C26.8802,75.4629 17.0726,71.3513 13.3187,62.0397 L0,68.9328 C6.29586,84.4122 19.6153,89.7335 36.9292,89.7335 C55.8183,89.7335 72.5274,81.6307 72.5274,62.765 C72.5274,42.5692 56.0604,37.9732 38.3823,35.7965 C28.212,34.5869 19.4939,32.5315 19.4939,25.154 C19.4939,18.8657 25.185,13.9075 37.0506,13.9075 C46.2527,13.9075 54.2438,18.5027 57.15,23.3404 L69.8632,16.8095 z" fill="white" id="svg_2" class=""/><path d="M120.73,2.90283 C90.9441,2.90283 77.0199,25.0336 77.1413,47.1651 C77.2619,69.1746 90.5806,91.0644 120.73,91.0644 C130.295,91.0644 138.408,88.8877 144.824,84.7753 L155.116,94.9343 L166.377,83.687 L156.327,73.7706 C161.776,65.9096 164.318,55.8719 164.198,46.1973 C163.834,24.4288 150.515,2.90283 120.73,2.90283 zM120.73,17.2939 C140.708,17.2939 147.852,32.048 148.457,45.7138 C149.062,60.2261 139.86,76.3103 120.73,76.3103 C102.326,76.3103 93.1234,61.4349 92.8813,47.5274 C92.6393,33.2576 100.752,17.2939 120.73,17.2939 z" fill="white" id="svg_3" class=""/><path d="M175.485,93.1161 L164.456,104.132 L182.739,122.393 L193.768,111.377 L175.485,93.1161 z" fill="#4472FF" id="svg_4" class=""/><path d="M179.567,2.90137 V87.5561 H239.139 V72.8021 H195.55 V2.90137 H179.567 z" fill="white" id="svg_5" class=""/><path d="M308.518,63.0065 C310.819,38.457300000000004 298.347,26.1217 278.369,26.1217 C258.997,26.1217 246.646,39.1826 246.646,57.3231 C246.646,76.4305 258.875,89.1284 279.459,89.1284 C288.54,89.1284 298.832,85.9847 305.128,79.4538 L295.684,70.1422 C292.293,73.649 285.15,75.7052 279.701,75.7052 C269.288,75.7052 262.871,70.384 261.902,63.0065 H308.518 zM262.145,50.7922 C264.324,43.0525 270.862,39.1826 278.854,39.1826 C287.329,39.1826 293.383,43.0525 294.352,50.7922 H262.145 z" fill="white" id="svg_6" class=""/><path d="M378.616,87.5569 V56.2351 C378.616,37.4898 367.356,26.9686 353.31,26.9686 C345.803,26.9686 339.749,29.9919 333.695,35.918 L332.726,27.8152 H319.528 V87.5569 H334.179 V57.0817 C334.179,48.0111 340.355,40.3926 349.435,40.3926 C358.88,40.3926 363.844,47.2858 363.844,56.3556 V87.5569 H378.616 z" fill="white" id="svg_7" class=""/><path d="M438.555,34.1035 C431.653,28.057 424.631,26.2426 415.307,26.2426 C404.41,26.2426 390.123,31.0803 390.123,44.8673 C390.123,58.4118 403.563,62.5234 414.823,63.37 C423.299,63.8535 426.688,65.5467 426.688,69.6583 C426.688,74.0125 421.482,76.9145 415.913,76.794 C409.253,76.6727 399.567,73.1659 395.329,68.4495 L388.064,78.9707 C396.782,88.0405 406.226,89.6132 415.671,89.6132 C432.743,89.6132 441.34,80.5426 441.34,70.0213 C441.34,54.1789 427.052,51.6392 415.792,50.9139 C408.164,50.4303 404.653,48.2528 404.653,44.383 C404.653,40.6344 408.527,38.4577 415.55,38.4577 C421.24,38.4577 426.084,39.7878 430.321,43.7782 L438.555,34.1035 z" fill="white" id="svg_8" class=""/><path fill-rule="evenodd" clip-rule="evenodd" d="M97.519,46.0196 C97.2053,38.6578 100.51,31.1002 107.008,26.0883 C112.511,21.8431 119.206,20.2725 125.411,21.2066 C120.534,22.8444 115.821,25.3208 111.491,28.6603 C105.28,33.4519 100.589,39.4553 97.519,46.0196 z" fill="white" id="svg_10" class=""/></g></svg>