<svg width="512" height="123" viewBox="0 0 512 123" fill="none" xmlns="http://www.w3.org/2000/svg">
<path d="M120.031 78.4848C138.696 78.4848 153.827 64.147 153.827 46.4605C153.827 28.774 138.696 14.4363 120.031 14.4363C101.366 14.4363 86.235 28.774 86.235 46.4605C86.235 64.147 101.366 78.4848 120.031 78.4848Z" fill="#4472FF"/>
<path d="M69.8632 16.8095C63.4459 3.74858 49.7637 0 36.5665 0C20.9471 0.12049 3.75388 7.25616 3.75388 24.6705C3.75388 43.6575 19.736 48.2526 37.0506 50.3089C48.3114 51.5185 56.6659 54.7835 56.6659 62.765C56.6659 71.9561 47.221 75.4629 37.172 75.4629C26.8802 75.4629 17.0726 71.3513 13.3187 62.0397L0 68.9328C6.29586 84.4122 19.6153 89.7335 36.9292 89.7335C55.8183 89.7335 72.5274 81.6307 72.5274 62.765C72.5274 42.5692 56.0604 37.9732 38.3823 35.7965C28.212 34.5869 19.4939 32.5315 19.4939 25.154C19.4939 18.8657 25.185 13.9075 37.0506 13.9075C46.2527 13.9075 54.2438 18.5027 57.15 23.3404L69.8632 16.8095Z" fill="white"/>
<path d="M120.73 2.90283C90.9441 2.90283 77.0199 25.0336 77.1413 47.1651C77.2619 69.1746 90.5806 91.0644 120.73 91.0644C130.295 91.0644 138.408 88.8877 144.824 84.7753L155.116 94.9343L166.377 83.687L156.327 73.7706C161.776 65.9096 164.318 55.8719 164.198 46.1973C163.834 24.4288 150.515 2.90283 120.73 2.90283ZM120.73 17.2939C140.708 17.2939 147.852 32.048 148.457 45.7138C149.062 60.2261 139.86 76.3103 120.73 76.3103C102.326 76.3103 93.1234 61.4349 92.8813 47.5274C92.6393 33.2576 100.752 17.2939 120.73 17.2939Z" fill="white"/>
<path d="M175.485 93.1161L164.456 104.132L182.739 122.393L193.768 111.377L175.485 93.1161Z" fill="#4472FF"/>
<path d="M179.567 2.90137V87.5561H239.139V72.8021H195.55V2.90137H179.567Z" fill="white"/>
<path d="M308.518 63.0065C310.819 38.4573 298.347 26.1217 278.369 26.1217C258.997 26.1217 246.646 39.1826 246.646 57.3231C246.646 76.4305 258.875 89.1284 279.459 89.1284C288.54 89.1284 298.832 85.9847 305.128 79.4538L295.684 70.1422C292.293 73.649 285.15 75.7052 279.701 75.7052C269.288 75.7052 262.871 70.384 261.902 63.0065H308.518ZM262.145 50.7922C264.324 43.0525 270.862 39.1826 278.854 39.1826C287.329 39.1826 293.383 43.0525 294.352 50.7922H262.145Z" fill="white"/>
<path d="M378.616 87.5569V56.2351C378.616 37.4898 367.356 26.9686 353.31 26.9686C345.803 26.9686 339.749 29.9919 333.695 35.918L332.726 27.8152H319.528V87.5569H334.179V57.0817C334.179 48.0111 340.355 40.3926 349.435 40.3926C358.88 40.3926 363.844 47.2858 363.844 56.3556V87.5569H378.616Z" fill="white"/>
<path d="M438.555 34.1035C431.653 28.057 424.631 26.2426 415.307 26.2426C404.41 26.2426 390.123 31.0803 390.123 44.8673C390.123 58.4118 403.563 62.5234 414.823 63.37C423.299 63.8535 426.688 65.5467 426.688 69.6583C426.688 74.0125 421.482 76.9145 415.913 76.794C409.253 76.6727 399.567 73.1659 395.329 68.4495L388.064 78.9707C396.782 88.0405 406.226 89.6132 415.671 89.6132C432.743 89.6132 441.34 80.5426 441.34 70.0213C441.34 54.1789 427.052 51.6392 415.792 50.9139C408.164 50.4303 404.653 48.2528 404.653 44.383C404.653 40.6344 408.527 38.4577 415.55 38.4577C421.24 38.4577 426.084 39.7878 430.321 43.7782L438.555 34.1035Z" fill="white"/>
<path d="M511.727 64.3067C514.03 39.7575 501.556 27.4219 481.577 27.4219C462.204 27.4219 449.854 40.4828 449.854 58.6232C449.854 77.7307 462.084 90.4286 482.665 90.4286C491.748 90.4286 502.037 87.2849 508.337 80.754L498.891 71.4424C495.501 74.9492 488.357 77.0054 482.909 77.0054C472.496 77.0054 466.079 71.6842 465.11 64.3067H511.727ZM465.352 52.0924C467.532 44.3527 474.071 40.4828 482.066 40.4828C490.534 40.4828 496.589 44.3527 497.559 52.0924H465.352Z" fill="white"/>
<path fill-rule="evenodd" clip-rule="evenodd" d="M97.519 46.0196C97.2053 38.6578 100.51 31.1002 107.008 26.0883C112.511 21.8431 119.206 20.2725 125.411 21.2066C120.534 22.8444 115.821 25.3208 111.491 28.6603C105.28 33.4519 100.589 39.4553 97.519 46.0196Z" fill="white"/>
</svg>
